<?xml version="1.0" standalone="no"?>
<!DOCTYPE svg PUBLIC "-//W3C//DTD SVG 20010904//EN"
 "http://www.w3.org/TR/2001/REC-SVG-20010904/DTD/svg10.dtd">
<svg version="1.0" xmlns="http://www.w3.org/2000/svg"
 width="45.000000pt" height="45.000000pt" viewBox="0 0 202.000000 174.000000"
 preserveAspectRatio="xMidYMid meet">

<g transform="translate(0.000000,174.000000) scale(0.100000,-0.100000)"
fill="#a9a9a9" stroke="none">
<path d="M953 1491 c-63 -80 -390 -478 -485 -590 l-89 -103 3 -112 3 -111 295
0 c162 0 301 -4 308 -8 9 -6 12 -56 12 -193 l0 -184 183 2 182 3 3 138 3 139
-71 72 c-39 40 -70 81 -70 92 0 21 -34 64 -50 64 -5 0 -29 -10 -52 -22 -61
-33 -194 -33 -255 0 -101 53 -156 146 -157 262 -1 119 52 207 158 263 59 30
192 31 256 0 57 -27 113 -85 139 -143 31 -68 29 -181 -4 -246 l-25 -48 26 -27
c14 -15 35 -27 47 -27 14 0 47 -25 88 -66 l66 -66 71 0 72 0 0 105 0 104 -117
3 -118 3 -3 373 -2 372 -190 0 -189 0 -38 -49z"/>
</g>
</svg>
